<?xml version="1.0" standalone="no"?>
<!DOCTYPE svg PUBLIC "-//W3C//DTD SVG 20010904//EN"
 "http://www.w3.org/TR/2001/REC-SVG-20010904/DTD/svg10.dtd">
<svg version="1.0" xmlns="http://www.w3.org/2000/svg"
 width="558.000000pt" height="558.000000pt" viewBox="0 0 558.000000 558.000000"
 preserveAspectRatio="xMidYMid meet">
<metadata>
Created by potrace 1.11, written by Peter Selinger 2001-2013
</metadata>
<g transform="translate(0.000000,558.000000) scale(0.100000,-0.100000)"
fill="#000000" stroke="none">
<path d="M4728 3678 c-168 -59 -270 -210 -263 -390 2 -53 10 -90 29 -132 31
-69 32 -76 9 -76 -24 0 -79 -35 -108 -68 -14 -15 -57 -103 -97 -197 -39 -93
-97 -229 -128 -302 l-57 -132 -22 57 c-13 31 -29 71 -36 87 -7 17 -46 111 -85
210 -86 212 -126 278 -194 320 -43 26 -59 30 -120 30 -62 0 -76 -4 -115 -30
-24 -17 -53 -42 -63 -56 -43 -58 -46 -87 -47 -466 l0 -363 42 -1 c23 0 74 -1
112 -2 l70 -2 1 323 c1 178 3 325 6 327 2 3 22 -35 43 -83 140 -314 209 -453
251 -501 63 -73 144 -97 236 -69 66 20 106 77 208 300 51 112 112 243 134 292
l42 89 -1 -324 c-1 -178 1 -330 3 -336 3 -9 35 -13 113 -13 l109 0 0 365 -1
365 -32 62 c-34 66 -93 113 -153 124 -53 9 -59 13 -82 64 -49 106 -48 207 1
313 128 273 520 269 648 -8 81 -175 3 -392 -169 -472 -48 -23 -114 -34 -126
-22 -5 5 -9 45 -7 72 1 9 9 17 19 17 32 0 63 35 66 76 7 66 -27 104 -93 104
-16 0 -33 6 -39 13 -28 33 -14 177 18 197 7 4 26 6 43 5 47 -4 76 14 87 55 19
70 -2 108 -68 120 -87 16 -148 -38 -182 -164 -19 -67 -22 -201 -6 -270 14 -61
58 -119 96 -129 22 -5 25 -12 26 -53 0 -86 67 -106 177 -54 204 96 284 354
173 552 -89 159 -296 237 -468 176z"/>
<path d="M450 2970 l0 -120 269 0 c206 0 270 -3 273 -12 2 -7 3 -160 3 -340
l-2 -328 118 0 117 0 0 308 c0 169 1 322 1 339 l1 33 268 2 267 3 0 115 0 115
-658 3 -657 2 0 -120z"/>
<path d="M2118 3071 c-74 -24 -120 -53 -163 -104 -117 -136 -61 -343 114 -426
l56 -26 473 -3 472 -3 0 -49 0 -50 -560 0 -560 0 0 -120 0 -121 568 3 567 3
50 25 c60 30 123 91 150 145 29 59 27 175 -4 234 -38 74 -103 127 -185 155
-43 14 -110 16 -498 16 -246 0 -449 3 -449 8 -1 4 -2 28 -3 54 l-1 48 525 0
c289 0 537 0 551 0 l25 0 1 115 0 115 -536 -1 c-489 0 -541 -2 -593 -18z"/>
<path d="M1010 2055 c0 -10 10 -15 30 -15 28 0 30 -2 30 -40 0 -29 4 -40 15
-40 11 0 15 11 15 40 0 38 2 40 30 40 20 0 30 5 30 15 0 12 -15 15 -75 15 -60
0 -75 -3 -75 -15z"/>
<path d="M1186 2049 c-16 -24 -12 -68 8 -81 6 -4 39 -8 73 -8 50 0 61 3 57 14
-4 11 -21 14 -60 12 -30 -1 -54 2 -54 6 0 4 27 8 60 8 50 0 58 3 53 16 -4 11
-18 15 -47 14 -71 -3 -84 3 -18 9 81 8 85 25 5 29 -54 3 -63 0 -77 -19z"/>
<path d="M1339 2058 c0 -7 -2 -26 -3 -42 -3 -44 17 -56 89 -56 51 0 63 3 59
14 -3 9 -20 14 -42 14 -82 0 -80 -1 -78 39 0 21 -4 38 -11 40 -7 3 -13 -1 -14
-9z"/>
<path d="M1512 2058 c-15 -15 -16 -70 0 -86 18 -18 138 -16 138 2 0 11 -14 14
-60 13 -76 -3 -79 11 -3 15 36 2 58 8 61 16 3 10 -8 13 -44 12 -75 -3 -86 3
-20 9 33 3 61 11 63 17 5 16 -119 18 -135 2z"/>
<path d="M1678 2059 c-16 -10 -20 -56 -7 -81 13 -25 139 -27 139 -2 0 12 -10
15 -47 14 -71 -3 -73 -2 -73 25 0 24 3 25 60 25 45 0 60 4 60 14 0 11 -15 14
-59 14 -33 -1 -65 -4 -73 -9z"/>
<path d="M1839 2057 c-16 -12 -19 -63 -6 -84 13 -20 123 -17 131 3 10 27 7 71
-7 82 -16 14 -98 13 -118 -1z m106 -34 c-2 -10 -4 -23 -4 -28 -1 -6 -13 -10
-28 -9 -16 1 -36 3 -45 3 -12 1 -18 9 -18 26 0 23 3 25 49 25 42 0 49 -3 46
-17z"/>
<path d="M1994 2058 c-14 -22 -12 -98 3 -98 8 0 13 13 13 38 l1 37 17 -35 c24
-49 46 -50 71 -3 l20 38 -3 -37 c-2 -30 1 -38 14 -38 13 0 16 9 15 46 -4 75
-40 85 -64 17 l-13 -35 -22 37 c-23 42 -40 53 -52 33z"/>
<path d="M2262 2058 c-17 -17 -15 -45 4 -52 9 -3 38 -6 65 -6 28 0 48 -4 45
-8 -2 -4 -29 -7 -59 -6 -40 2 -57 -1 -61 -12 -8 -21 127 -20 145 2 16 19 1 48
-27 50 -11 1 -39 3 -64 5 -39 2 -36 3 23 8 37 3 68 11 70 16 3 15 -126 18
-141 3z"/>
<path d="M2482 2058 c-12 -16 -52 -87 -52 -93 0 -10 22 -4 36 10 20 20 54 19
69 -1 6 -9 17 -15 23 -13 13 4 -42 109 -57 109 -5 0 -13 -6 -19 -12z m28 -32
c0 -3 -4 -8 -10 -11 -5 -3 -10 -1 -10 4 0 6 5 11 10 11 6 0 10 -2 10 -4z"/>
<path d="M2589 2068 c-7 -13 -4 -86 3 -95 7 -8 35 -13 74 -13 51 0 64 3 64 16
0 9 -8 14 -17 13 -10 -1 -37 -1 -60 0 l-43 1 0 40 c0 22 -4 40 -10 40 -5 0
-11 -1 -11 -2z"/>
<path d="M2752 2052 c-9 -26 -9 -67 1 -79 14 -19 137 -18 137 2 0 10 -16 15
-62 18 l-63 3 63 2 c46 1 62 6 62 16 0 10 -14 14 -55 14 -30 -1 -58 2 -62 5
-3 4 21 7 55 7 48 0 62 3 62 15 0 21 -130 18 -138 -3z"/>
<path d="M2914 2055 c-14 -9 -14 -16 -5 -33 10 -19 20 -22 73 -22 34 0 59 -3
55 -6 -3 -3 -33 -6 -66 -5 -48 0 -61 -3 -61 -14 0 -12 15 -15 68 -15 71 0 95
11 84 39 -8 24 -18 28 -74 30 -76 2 -72 11 5 11 49 0 67 4 67 13 0 18 -123 19
-146 2z"/>
<path d="M3182 2058 c-18 -18 -16 -98 3 -98 10 0 15 11 16 38 l1 37 15 -37
c21 -50 49 -51 69 -3 18 43 23 44 21 3 -1 -17 3 -33 11 -35 14 -5 18 92 3 101
-18 11 -39 -6 -53 -42 l-14 -37 -19 39 c-22 44 -35 52 -53 34z"/>
<path d="M3405 2062 c-13 -9 -55 -80 -55 -93 0 -14 20 -11 36 6 9 8 24 15 35
15 11 0 22 -7 25 -15 6 -14 34 -22 34 -9 0 11 -53 104 -59 104 -3 0 -11 -4
-16 -8z"/>
<path d="M3507 2063 c-4 -3 -7 -28 -7 -55 0 -35 4 -48 14 -48 11 0 14 11 13
40 l-3 39 30 -27 c17 -15 35 -33 41 -41 6 -7 20 -12 31 -9 15 3 19 13 21 56 2
40 0 52 -12 52 -11 0 -15 -11 -15 -42 l0 -42 -43 42 c-42 41 -57 49 -70 35z"/>
<path d="M3716 2063 c-4 -4 -16 -27 -27 -52 -19 -45 -17 -69 4 -41 17 21 66
25 73 6 6 -14 34 -23 34 -11 0 3 -12 28 -27 55 -26 47 -41 59 -57 43z"/>
<path d="M3830 2060 c-16 -10 -16 -80 0 -90 22 -14 116 -12 127 3 5 6 9 21 9
32 -1 16 -8 20 -35 20 -42 0 -56 -25 -14 -26 28 -1 28 -1 3 -8 -45 -12 -76 -2
-76 25 0 23 3 24 63 24 47 0 63 3 63 14 0 11 -16 14 -65 13 -36 0 -69 -3 -75
-7z"/>
<path d="M3996 2058 c-18 -10 -20 -64 -3 -85 14 -18 137 -18 137 0 0 10 -17
14 -57 16 -78 2 -81 11 -5 11 50 0 62 3 62 16 0 13 -10 15 -60 12 -33 -2 -60
0 -60 4 0 4 27 8 60 8 45 0 60 4 60 14 0 11 -15 14 -59 14 -32 -1 -66 -5 -75
-10z"/>
<path d="M4152 2058 c-16 -20 -13 -98 4 -98 9 0 14 13 15 38 0 20 3 30 6 22 3
-8 15 -28 25 -43 16 -22 23 -25 34 -16 8 6 14 17 14 23 0 7 6 20 13 30 12 16
13 15 13 -15 -1 -18 5 -34 12 -36 14 -5 18 92 3 101 -18 12 -40 -6 -52 -41
l-11 -35 -22 38 c-24 42 -38 51 -54 32z"/>
<path d="M4329 2059 c-15 -9 -20 -70 -6 -86 14 -19 137 -18 137 1 0 10 -15 14
-55 14 -31 0 -59 2 -62 6 -4 3 21 6 55 6 50 0 62 3 62 16 0 12 -9 15 -43 11
-24 -2 -52 0 -63 4 -12 5 7 8 48 8 55 1 66 4 62 15 -4 11 -22 15 -65 14 -32
-1 -64 -5 -70 -9z"/>
<path d="M4484 2059 c-4 -6 -8 -31 -9 -55 -2 -32 1 -44 11 -44 14 0 18 17 15
53 -3 26 9 21 51 -20 31 -30 42 -35 55 -27 10 6 17 22 16 37 -1 15 -1 36 -2
48 -1 12 -6 19 -13 16 -8 -2 -12 -19 -12 -40 2 -42 -5 -41 -50 10 -31 34 -50
41 -62 22z"/>
<path d="M4636 2055 c-4 -12 2 -15 28 -15 32 0 34 -2 34 -36 0 -39 5 -49 21
-40 5 4 8 22 7 41 -4 34 -3 35 30 35 26 0 32 4 28 15 -5 11 -23 15 -74 15 -51
0 -69 -4 -74 -15z"/>
</g>
</svg>
